#!OML:ASF H:\ManfredETheater\Project 1\Capture day 1\Session 1\subject.ASF
:FULLY-SPECIFIED
:DEGREES
77
root -0.171745 15.8762 -5.90776 3.60545 -31.4834 15.154
lowerback 18.9792 1.51447 -7.7972
upperback 1.8986 -0.146653 -4.62098
thorax -8.59817 0.086932 -0.562816
lowerneck -14.7289 -7.60349 -8.04894
upperneck 4.73264 -9.49961 9.02713
head 4.61742 -4.34161 3.2625
rclavicle -3.61788e-014 -2.82274e-014
rhumerus -47.2347 4.75764 -91.9763
rradius 83.3454
rwrist -13.7083
rhand -33.5336 9.22366
rfingers 7.12502
rthumb -6.72938 -20.6494
lclavicle -3.61788e-014 -2.82274e-014
lhumerus -52.4851 -2.33585 95.8838
lradius 101.349
lwrist 13.9612
lhand -18.3164 -9.90639
lfingers 7.12502
lthumb 7.96499 19.9235
rfemur -26.5684 -11.1166 20.5347
rtibia 101.013
rfoot 6.99156 -8.38808
rtoes 25.949
lfemur -40.4394 -5.28309 -18.5754
ltibia 60.6247
lfoot -28.5828 -1.89619
ltoes -27.3142
78
root -0.460756 15.8657 -5.41473 3.27142 -31.9181 15.8925
lowerback 19.0193 1.19982 -8.19169
upperback 1.78885 -0.666379 -4.69855
thorax -8.71478 -0.144169 -0.293737
lowerneck -15.2178 -7.15694 -7.76669
upperneck 5.02265 -8.89596 8.62319
head 4.70026 -4.04676 3.13928
rclavicle 5.725e-014 7.08667e-014
rhumerus -49.0006 3.89394 -92.0142
rradius 82.0773
rwrist -14.9432
rhand -33.9031 9.37051
rfingers 7.12502
rthumb -7.08603 -20.4909
lclavicle 5.725e-014 7.08667e-014
lhumerus -49.8744 -4.34231 96.8887
lradius 101.866
lwrist 12.7862
lhand -18.3677 -9.90189
lfingers 7.12502
lthumb 7.91544 19.9299
rfemur -31.6785 -12.45 19.6672
rtibia 103.677
rfoot 4.55713 -8.28781
rtoes 24.4486
lfemur -38.148 -5.33694 -19.4715
ltibia 60.7578
lfoot -30.0098 -1.54908
ltoes -27.8744
79
root -0.753179 15.859 -4.92057 3.11751 -32.3422 16.3219
lowerback 18.9875 0.862201 -8.28466
upperback 1.68713 -1.13279 -4.68138
thorax -8.78264 -0.358811 -0.102325
lowerneck -15.6881 -6.70753 -7.50305
upperneck 5.23016 -8.27636 8.16137
head 4.75534 -3.75106 3.00451
rclavicle -2.97183e-014 -2.8625e-014
rhumerus -50.9157 3.26148 -91.9166
rradius 81.4548
rwrist -16.3463
rhand -34.106 9.57834
rfingers 7.12502
rthumb -7.28188 -20.2764
lclavicle -2.97183e-014 -2.8625e-014
lhumerus -47.5083 -6.39958 97.6453
lradius 102.727
lwrist 11.8066
lhand -18.3122 -9.96297
lfingers 7.12502
lthumb 7.969 19.8668
rfemur -36.8578 -13.4859 19.4313
rtibia 105.368
rfoot 2.40324 -7.81588
rtoes 21.6636
lfemur -35.8584 -5.39511 -20.0653
ltibia 60.8115
lfoot -31.0887 -1.34306
ltoes -28.676
80
root -1.05231 15.8569 -4.42533 3.03417 -32.7863 16.5703
lowerback 18.9233 0.52619 -8.24181
upperback 1.59941 -1.55508 -4.59
thorax -8.81799 -0.556503 0.0827275
lowerneck -16.1297 -6.24464 -7.24479
upperneck 5.37236 -7.63192 7.64909
head 4.78612 -3.44947 2.85891
rclavicle -3.34952e-014 -5.56597e-015
rhumerus -52.9248 2.88969 -91.7244
rradius 81.3573
rwrist -17.7208
rhand -34.1144 9.87126
rfingers 7.12502
rthumb -7.29003 -19.9832
lclavicle -3.34952e-014 -5.56597e-015
lhumerus -45.3953 -8.37484 98.1875
lradius 103.963
lwrist 11.2037
lhand -18.1054 -10.0447
lfingers 7.12502
lthumb 8.16857 19.7774
rfemur -41.9554 -14.1509 19.6368
rtibia 106.071
rfoot 0.513239 -7.03755
rtoes 17.7214
lfemur -33.5157 -5.44235 -20.4822
ltibia 60.7765
lfoot -31.7534 -1.28624
ltoes -29.7281
81
root -1.3613 15.8612 -3.92815 2.93351 -33.2477 16.794
lowerback 18.8275 0.196377 -8.22904
upperback 1.52147 -1.96668 -4.4582
thorax -8.82149 -0.748104 0.324988
lowerneck -16.5374 -5.75828 -6.98691
upperneck 5.4821 -6.95554 7.1124
head 4.80325 -3.1364 2.70996
rclavicle -9.54166e-015 7.95139e-015
rhumerus -54.9566 2.77815 -91.4806
rradius 81.6135
rwrist -18.8315
rhand -33.9773 10.2361
rfingers 7.12502
rthumb -7.15766 -19.6229
lclavicle -9.54166e-015 7.95139e-015
lhumerus -43.5408 -10.1564 98.5431
lradius 105.576
lwrist 11.0641
lhand -17.8336 -10.1558
lfingers 7.12502
lthumb 8.43088 19.6559
rfemur -46.8396 -14.473 20.0345
rtibia 105.795
rfoot -1.14553 -6.03068
rtoes 12.8128
lfemur -31.1164 -5.48997 -20.8716
ltibia 60.6423
lfoot -31.9066 -1.40492
ltoes -30.9594
82
root -1.68312 15.8745 -3.42787 2.75464 -33.7396 17.0739
lowerback 18.6995 -0.118985 -8.33011
upperback 1.45882 -2.37727 -4.31602
thorax -8.78301 -0.936513 0.63997
lowerneck -16.9235 -5.24907 -6.7151
upperneck 5.59919 -6.25571 6.58224
head 4.8231 -2.81291 2.56341
rclavicle -6.82328e-014 4.01545e-014
rhumerus -56.9482 2.88156 -91.2208
rradius 82.0714
rwrist -19.5022
rhand -33.7471 10.6058
rfingers 7.12502
rthumb -6.93545 -19.2605
lclavicle -6.82328e-014 4.01545e-014
lhumerus -41.9383 -11.7201 98.7465
lradius 107.525
lwrist 11.4545
lhand -17.5175 -10.1986
lfingers 7.12502
lthumb 8.73601 19.6006
rfemur -51.3556 -14.4941 20.4551
rtibia 104.551
rfoot -2.64239 -4.90783
rtoes 7.14933
lfemur -28.651 -5.50562 -21.3087
ltibia 60.3974
lfoot -31.4594 -1.79203
ltoes -32.2784
